<?xml version="1.0" standalone="no"?>
<!DOCTYPE svg PUBLIC "-//W3C//DTD SVG 20010904//EN"
 "http://www.w3.org/TR/2001/REC-SVG-20010904/DTD/svg10.dtd">
<svg version="1.0" xmlns="http://www.w3.org/2000/svg"
 width="708.000000pt" height="708.000000pt" viewBox="0 0 708.000000 708.000000"
 preserveAspectRatio="xMidYMid meet">
<metadata>
Created by potrace 1.11, written by Peter Selinger 2001-2013
</metadata>
<g transform="translate(0.000000,708.000000) scale(0.100000,-0.100000)"
fill="#000000" stroke="none">
<path d="M3320 7024 c-19 -2 -84 -9 -145 -14 -318 -31 -684 -125 -985 -252
-279 -118 -609 -315 -845 -504 -142 -114 -407 -379 -519 -519 -426 -534 -676
-1138 -758 -1830 -21 -183 -16 -607 10 -803 106 -785 445 -1476 996 -2028
1132 -1131 2876 -1349 4254 -530 413 246 790 596 1068 992 735 1049 837 2421
265 3562 -176 351 -376 627 -656 907 -189 190 -322 298 -542 445 -460 305
-971 491 -1543 560 -88 11 -538 21 -600 14z m-1051 -825 c161 -51 245 -97 337
-182 130 -122 269 -345 281 -451 7 -60 -13 -141 -50 -201 -104 -169 -157 -195
-320 -159 -148 33 -205 75 -259 190 -41 87 -50 156 -42 329 11 278 -29 394
-142 412 -39 6 -40 8 -16 33 33 36 142 51 211 29z m1324 -800 c106 -70 162
-165 181 -311 40 -291 34 -332 -59 -425 -70 -70 -109 -84 -178 -63 -96 28
-215 215 -251 395 -22 107 -29 226 -17 271 24 89 128 164 226 164 41 0 61 -6
98 -31z m-830 -229 c9 -34 -22 -58 -78 -61 -82 -3 -87 -1 -83 24 2 17 12 24
43 30 22 5 47 13 55 17 28 16 57 11 63 -10z m-15 -92 c10 -14 32 -128 32 -170
0 -24 -4 -26 -46 -30 -59 -4 -68 7 -83 107 -10 72 -10 81 6 92 22 17 78 17 91
1z m43 -244 c93 -27 188 -146 189 -234 0 -49 -15 -60 -83 -60 -46 0 -74 7
-122 31 -62 30 -125 79 -125 98 0 5 -5 11 -11 13 -16 5 -29 98 -18 126 16 43
80 52 170 26z m-145 -206 l26 -37 -22 -171 c-12 -94 -24 -178 -27 -187 -18
-47 -116 -33 -159 22 -53 69 -45 108 76 370 l41 90 20 -25 c10 -14 31 -42 45
-62z m947 -58 c51 0 69 -4 73 -15 13 -33 -15 -45 -103 -45 -105 0 -123 8 -123
59 0 21 3 40 6 44 4 3 23 -5 43 -18 29 -21 48 -25 104 -25z m-748 -69 c9 -15
45 -207 55 -291 4 -41 15 -118 24 -170 23 -138 44 -299 56 -430 5 -63 17 -171
25 -240 9 -69 19 -161 24 -205 5 -44 14 -118 20 -165 6 -47 17 -148 26 -225 8
-77 20 -176 25 -220 16 -128 38 -319 55 -460 13 -114 39 -328 65 -535 5 -36
16 -123 25 -195 8 -71 23 -186 31 -255 9 -69 18 -157 21 -197 5 -66 4 -72 -18
-86 -13 -9 -36 -19 -51 -22 -23 -6 -28 -3 -32 17 -5 21 -33 232 -56 418 -5 41
-16 125 -25 185 -8 61 -22 160 -30 220 -7 61 -21 162 -30 225 -8 63 -20 149
-25 190 -5 41 -16 125 -25 185 -8 61 -26 200 -40 310 -14 110 -28 207 -30 215
-2 8 -9 51 -14 95 -6 44 -20 143 -31 220 -11 77 -27 190 -35 250 -9 61 -20
137 -25 170 -25 163 -41 289 -61 487 -12 120 -25 216 -27 213 -3 -2 -5 -28 -6
-57 -1 -40 -5 -53 -16 -53 -9 0 -16 11 -18 28 -2 15 -5 27 -7 27 -2 0 -16 -12
-30 -26 -23 -23 -33 -26 -68 -21 -67 9 -89 59 -29 65 17 2 36 10 42 18 15 17
46 18 56 2 9 -15 22 16 23 55 1 30 21 38 21 8 0 -11 5 -23 10 -26 18 -11 17
141 -1 257 -6 37 -8 72 -4 77 6 11 118 -40 130 -58z m1010 -27 c60 -20 114
-40 120 -45 6 -6 -5 -23 -29 -47 -99 -96 -96 -233 7 -316 35 -28 46 -31 107
-31 61 0 72 3 107 31 21 17 48 52 61 77 13 26 27 47 31 47 13 0 311 -361 311
-376 0 -20 -75 -53 -146 -64 -91 -15 -133 7 -251 125 -52 52 -98 95 -102 95
-4 0 -25 -35 -47 -77 -94 -180 -180 -316 -208 -326 -8 -3 -34 7 -58 22 -59 37
-126 61 -171 61 -21 0 -47 5 -57 10 -36 19 -163 24 -201 8 -69 -30 -90 -38
-105 -38 -50 0 -112 359 -86 500 14 74 30 137 41 158 5 9 17 37 26 62 57 146
54 145 285 141 100 -1 186 2 200 8 38 15 46 14 165 -25z m-661 -43 c4 -5 1
-22 -6 -38 -6 -15 -18 -48 -27 -73 -23 -65 -43 -63 -60 7 l-13 57 31 28 c31
28 65 36 75 19z m937 -46 c16 -9 43 -34 59 -57 26 -35 30 -50 30 -105 0 -68
-3 -74 -64 -135 -36 -35 -44 -38 -94 -38 -48 0 -60 4 -98 36 -24 19 -44 41
-44 48 0 8 -7 19 -15 26 -24 20 -19 103 9 148 26 40 62 76 86 85 30 11 102 7
131 -8z m-1070 -15 c10 -20 59 -174 59 -188 0 -6 -21 -17 -47 -25 -131 -42
-148 -35 -156 60 -3 38 -9 82 -13 100 -5 26 -2 33 17 44 56 30 127 34 140 9z
m1259 -685 c30 -30 61 -55 70 -55 18 0 40 -19 40 -35 0 -6 -44 -49 -97 -95
-54 -47 -127 -112 -163 -144 -99 -90 -140 -117 -164 -110 -43 13 -106 67 -106
90 0 22 291 372 328 393 28 17 35 13 92 -44z m228 18 c6 -62 -63 -93 -135 -61
-39 18 -66 44 -59 57 11 18 98 40 146 38 43 -2 45 -4 48 -34z m-1024 -64 c102
-19 165 -41 207 -71 36 -26 39 -32 39 -76 0 -82 2 -81 -225 -89 -138 -4 -207
-3 -221 5 -14 7 -25 29 -33 69 -7 32 -18 70 -23 85 -5 14 -8 34 -6 43 7 39
142 56 262 34z m235 -268 c10 -10 22 -38 26 -62 3 -24 11 -58 16 -75 11 -37
17 -67 57 -294 17 -98 26 -169 20 -175 -9 -10 -665 -8 -681 2 -5 3 -6 22 -3
42 3 20 13 118 21 218 18 224 32 307 58 331 16 14 47 18 216 22 108 3 208 7
224 8 15 1 35 -6 46 -17z m180 -108 c21 -12 31 -26 31 -42 0 -18 -4 -22 -17
-16 -10 4 -39 10 -65 12 -38 4 -48 9 -48 24 0 38 51 49 99 22z m28 -90 c37
-22 273 -280 273 -299 0 -8 -12 -19 -27 -25 -64 -25 -211 16 -297 82 -40 31
-44 39 -55 99 -22 122 -24 152 -10 162 19 12 81 2 116 -19z m-557 -443 c13 -8
12 -13 -8 -32 -18 -19 -33 -23 -82 -23 -64 0 -98 20 -87 49 5 13 22 16 84 16
43 0 85 -5 93 -10z m428 -2 c19 -19 14 -35 -20 -59 -42 -31 -146 -33 -177 -5
-24 21 -27 46 -9 64 16 16 190 16 206 0z m-524 -80 c28 1 65 3 81 4 l30 3 12
-305 c12 -282 11 -306 -4 -317 -10 -8 -49 -13 -99 -13 -70 0 -83 3 -88 18 -7
26 -16 165 -25 397 -9 217 -5 249 26 223 9 -7 38 -11 67 -10z m582 -68 c12
-36 30 -92 39 -125 9 -33 21 -71 25 -85 5 -14 18 -59 30 -100 12 -41 25 -85
31 -98 5 -13 9 -36 9 -52 0 -24 -5 -31 -27 -36 -16 -3 -49 -13 -74 -21 -25 -8
-64 -13 -85 -11 l-38 3 -53 190 c-107 383 -105 374 -75 376 9 1 37 1 62 0 25
-1 56 5 70 13 47 27 63 17 86 -54z m150 -546 c13 -19 15 -32 8 -52 -9 -25 -14
-28 -97 -36 -93 -9 -117 -2 -117 34 0 37 12 49 56 56 24 3 47 10 50 15 3 5 23
9 44 9 31 0 43 -5 56 -26z m-611 -49 c9 -13 10 -28 4 -42 -8 -21 -15 -23 -82
-23 -92 0 -120 23 -82 67 23 27 143 26 160 -2z m649 -67 c8 -13 19 -41 24 -63
5 -22 22 -85 37 -140 15 -55 35 -131 45 -170 10 -38 26 -97 35 -130 9 -33 32
-121 51 -195 20 -74 42 -160 51 -190 27 -95 28 -112 7 -127 -10 -7 -32 -13
-49 -13 -17 0 -36 -5 -41 -10 -11 -11 -116 -16 -133 -6 -9 6 -26 57 -66 206
-8 30 -51 188 -95 350 -44 162 -86 318 -94 345 -30 104 -30 111 1 133 21 14
47 20 103 21 41 1 77 4 79 7 11 10 32 2 45 -18z m-625 -32 c12 -14 19 -106 46
-546 8 -140 17 -291 20 -336 3 -55 1 -84 -7 -92 -7 -7 -44 -12 -95 -12 -77 0
-84 2 -92 23 -5 12 -15 117 -21 232 -6 116 -15 266 -20 335 -20 285 -23 380
-10 395 17 20 162 21 179 1z m55 -1016 c20 -7 26 -16 26 -41 0 -34 -24 -69
-47 -69 -7 0 -31 11 -53 25 -22 14 -43 25 -48 25 -5 0 -19 11 -32 26 -21 21
-22 27 -10 34 20 13 132 13 164 0z m811 -10 c3 -6 -2 -13 -12 -16 -10 -3 -25
-9 -33 -12 -42 -16 -126 -29 -134 -21 -16 14 7 30 53 36 22 3 41 10 41 14 0
12 77 11 85 -1z m-955 -55 c7 -8 19 -15 26 -15 8 0 14 -4 14 -10 0 -5 6 -10
13 -10 8 0 27 -11 43 -25 35 -30 27 -41 -43 -54 -56 -11 -291 -17 -300 -7 -13
13 9 37 58 63 73 40 89 49 102 62 16 16 72 14 87 -4z m1003 -6 c46 -24 157
-111 157 -124 0 -35 -206 -72 -331 -59 -91 9 -97 13 -75 61 33 73 69 107 128
119 71 16 95 16 121 3z"/>
<path d="M2216 6156 c-48 -15 -54 -28 -26 -58 11 -12 23 -34 26 -48 3 -14 10
-38 15 -54 5 -16 9 -41 9 -55 0 -14 5 -33 10 -41 9 -13 11 -13 20 0 5 8 10 27
10 43 0 15 3 27 8 26 4 0 29 -29 57 -65 27 -35 53 -64 58 -64 5 0 7 29 6 64
-2 36 -1 67 3 71 8 8 46 -11 75 -38 18 -16 23 -17 26 -6 2 8 9 29 15 48 10 29
9 38 -5 53 -27 30 -153 105 -206 122 -54 18 -49 18 -101 2z"/>
<path d="M2315 5740 c-11 -17 5 -70 21 -70 19 0 28 24 20 55 -6 25 -30 34 -41
15z"/>
</g>
</svg>
