<?xml version="1.0" standalone="no"?>
<!DOCTYPE svg PUBLIC "-//W3C//DTD SVG 20010904//EN"
 "http://www.w3.org/TR/2001/REC-SVG-20010904/DTD/svg10.dtd">
<svg version="1.0" xmlns="http://www.w3.org/2000/svg"
 width="1200.000000pt" height="1200.000000pt" viewBox="0 0 1200.000000 1200.000000"
 preserveAspectRatio="xMidYMid meet">
<metadata>
Created by potrace 1.11, written by Peter Selinger 2001-2013
</metadata>
<g transform="translate(0.000000,1200.000000) scale(0.100000,-0.100000)"
fill="#000000" stroke="none">
<path d="M3924 10681 c-3 -3 -15 -6 -27 -6 -70 -4 -151 -34 -161 -62 -9 -21 2
-37 44 -63 22 -13 40 -28 40 -33 0 -4 11 -23 24 -40 26 -35 67 -113 90 -167
18 -44 30 -101 44 -207 5 -37 5 -63 0 -63 -5 0 -6 -6 -1 -12 4 -7 6 -49 4 -93
-6 -158 -5 -371 2 -410 18 -100 80 -228 134 -275 72 -64 93 -80 103 -80 6 0
10 -4 10 -9 0 -18 211 -111 315 -138 11 -3 92 -5 180 -4 185 3 191 5 264 97
23 29 72 125 87 170 18 54 28 346 14 393 -4 14 -13 46 -21 71 -25 89 -62 167
-123 255 -33 50 -69 99 -78 109 -10 11 -18 23 -18 27 0 4 -6 14 -13 21 -7 7
-43 50 -80 95 -67 81 -160 169 -240 227 -23 17 -43 34 -45 38 -2 5 -10 8 -18
8 -8 0 -14 3 -14 8 0 4 -19 16 -43 27 -23 11 -44 23 -47 27 -7 8 -136 57 -170
64 -14 3 -34 6 -45 9 -11 2 -20 4 -20 5 0 9 -182 20 -191 11z m181 -90 c100
-19 302 -104 313 -133 2 -4 10 -8 18 -8 8 0 14 -4 14 -8 0 -4 12 -15 28 -24
60 -37 79 -63 76 -109 -1 -23 4 -60 12 -82 17 -48 10 -62 -20 -42 -26 17 -56
11 -56 -13 0 -8 -18 10 -40 40 -22 31 -46 58 -54 61 -33 13 -73 -7 -77 -38 -5
-47 -4 -83 3 -97 6 -11 5 -18 -2 -18 -6 0 -7 -6 -1 -17 42 -83 54 -152 32
-176 -25 -25 -110 180 -137 328 -6 33 -19 45 -49 45 -34 0 -43 -13 -62 -89
-10 -41 -23 -76 -29 -78 -20 -7 -42 23 -48 62 -15 105 -65 231 -131 329 -25
37 -45 70 -45 74 0 10 194 5 255 -7z m91 -695 c24 -61 24 -136 1 -173 -14 -22
-24 -14 -24 20 0 44 -10 107 -21 137 -9 25 0 70 15 70 4 0 17 -24 29 -54z"/>
<path d="M6054 9324 c-51 -13 -164 -49 -185 -60 -46 -23 -168 -154 -144 -154
3 0 1 -10 -6 -21 -31 -58 -27 -267 8 -404 43 -173 148 -397 243 -519 27 -35
133 -136 142 -136 5 0 20 -8 35 -17 34 -23 45 -25 128 -26 53 0 81 5 118 23
45 21 141 100 123 100 -5 0 -4 6 2 13 15 18 54 156 56 200 0 9 3 17 7 17 7 0
4 326 -4 370 -2 14 -8 50 -12 80 -9 58 -11 67 -15 75 -1 3 -3 8 -5 13 -5 20
-18 50 -31 75 -8 15 -13 27 -9 27 3 0 -11 33 -31 73 -33 66 -84 138 -123 177
-25 25 -81 62 -81 54 0 -3 -6 -2 -12 3 -32 26 -158 48 -204 37z"/>
<path d="M4856 8993 c-2 -2 -32 -5 -67 -7 -35 -2 -64 -5 -64 -6 0 -1 -26 -3
-58 -4 -33 -2 -62 -8 -66 -15 -8 -12 6 -105 19 -131 6 -12 40 -15 189 -18
l182 -4 -4 86 c-2 47 -6 89 -10 92 -6 7 -115 12 -121 7z"/>
<path d="M4676 8722 c4 -31 7 -72 8 -89 1 -18 5 -33 9 -33 5 0 6 -4 3 -8 -3
-5 -1 -25 4 -44 l10 -34 77 0 c50 0 93 -6 119 -16 23 -9 44 -15 47 -12 2 3 1
23 -4 45 -5 21 -11 54 -14 72 -14 93 -17 113 -17 129 1 27 -11 30 -121 34 -56
3 -108 7 -115 9 -10 4 -11 -8 -6 -53z"/>
<path d="M4687 8444 c-52 -27 -80 -76 -82 -143 -2 -75 28 -140 102 -216 81
-84 140 -109 327 -140 122 -20 250 -3 251 33 1 4 6 16 12 28 10 17 7 31 -22
86 -18 36 -44 79 -57 94 -43 52 -176 184 -186 184 -5 0 -16 7 -23 17 -12 14
-88 54 -104 54 -2 0 -24 7 -47 15 -56 20 -116 15 -171 -12z"/>
<path d="M4557 8223 c-14 -24 -52 -93 -75 -137 -14 -28 -29 -53 -32 -56 -9 -8
-60 -118 -60 -129 0 -6 -3 -11 -8 -11 -4 0 -13 -15 -21 -32 -8 -18 -37 -79
-64 -135 l-49 -101 26 -59 c15 -32 39 -71 54 -86 24 -26 134 -86 172 -94 110
-24 116 -15 185 267 2 8 4 15 5 15 2 0 3 8 20 90 19 99 21 108 30 150 14 58
15 55 -46 119 -51 54 -120 167 -108 178 2 3 -2 11 -10 17 -8 7 -16 8 -19 4z"/>
<path d="M5974 8049 c-3 -5 -3 -13 0 -18 3 -4 6 -33 7 -63 l2 -55 136 -2 c162
-3 226 -7 240 -15 15 -9 43 38 35 58 -5 14 -13 16 -33 10 -29 -8 -165 -10
-196 -3 -31 7 -115 52 -115 61 0 4 -6 8 -14 8 -8 0 -16 5 -18 12 -5 14 -36 19
-44 7z"/>
<path d="M4780 7931 c-5 -10 -7 -20 -5 -23 3 -2 7 -29 10 -59 15 -157 23 -220
30 -264 14 -80 24 -179 30 -273 2 -40 6 -80 9 -90 4 -10 9 -45 11 -78 3 -32 8
-72 11 -89 6 -29 9 -60 18 -180 3 -33 6 -60 7 -60 1 0 2 -13 4 -30 11 -126 17
-200 20 -265 10 -199 14 -261 18 -268 5 -7 16 -83 22 -152 2 -19 6 -91 10
-160 3 -69 7 -136 10 -150 2 -14 7 -65 10 -115 4 -49 8 -106 10 -125 2 -19 6
-67 9 -106 3 -40 8 -103 12 -140 4 -38 8 -85 9 -104 2 -19 4 -35 5 -35 3 0 9
-42 15 -100 5 -69 13 -142 20 -194 3 -20 8 -54 10 -76 3 -22 8 -53 11 -70 4
-16 8 -41 11 -55 2 -14 6 -50 8 -80 2 -30 7 -84 9 -120 3 -36 8 -96 11 -135 7
-100 21 -234 29 -275 6 -28 13 -88 22 -175 3 -33 8 -63 10 -66 2 -3 6 -33 9
-65 6 -60 11 -90 20 -134 3 -14 8 -43 10 -65 3 -22 8 -47 10 -55 2 -8 7 -35
10 -60 3 -25 8 -58 11 -74 3 -16 8 -45 9 -65 2 -20 6 -51 9 -69 3 -17 9 -47
12 -65 3 -17 7 -43 10 -57 2 -14 6 -50 9 -80 2 -30 9 -86 15 -125 6 -38 13
-89 15 -111 2 -23 7 -55 10 -70 3 -16 8 -44 10 -63 3 -19 7 -46 9 -60 16 -100
19 -122 36 -256 5 -44 12 -96 15 -115 4 -19 8 -48 10 -65 8 -74 19 -134 28
-155 4 -8 8 -28 11 -45 2 -16 5 -30 6 -30 1 0 4 -11 7 -25 7 -38 11 -55 13
-57 4 -5 7 -22 9 -43 1 -14 8 -20 24 -20 13 0 32 9 42 20 10 11 14 20 9 20 -6
0 -10 19 -10 42 0 24 -4 66 -8 93 -4 28 -9 75 -11 105 -2 30 -6 69 -9 85 -4
17 -8 64 -11 105 -3 41 -8 91 -10 110 -6 40 -14 150 -20 260 -2 41 -7 113 -11
160 -4 47 -8 216 -9 375 -1 160 -5 315 -9 345 -4 30 -8 73 -11 95 -2 22 -4 40
-5 40 -1 0 -3 27 -5 60 -5 86 -14 194 -19 235 -7 48 -16 136 -21 187 -2 22 -6
63 -9 90 -8 61 -16 138 -20 183 -4 35 -11 93 -22 180 -3 25 -7 61 -9 80 -2 19
-4 35 -5 35 -1 0 -4 14 -5 30 -2 17 -6 50 -10 75 -9 59 -15 113 -20 180 -2 30
-6 73 -9 95 -2 22 -7 74 -11 115 -7 71 -9 94 -19 230 -7 91 -18 232 -22 285
-2 28 -6 84 -8 125 -3 41 -7 99 -11 130 -3 30 -7 78 -10 105 -2 28 -7 70 -11
95 -3 25 -7 61 -9 80 -2 19 -6 53 -10 75 -3 22 -7 54 -9 70 -5 36 -16 110 -22
145 -7 41 -44 314 -49 360 -5 53 -17 156 -21 185 -2 17 -6 71 -9 120 -3 50 -7
97 -10 105 -5 16 -14 125 -20 234 -2 39 -7 114 -11 166 -3 52 -7 113 -8 135
-2 38 -4 40 -46 52 -24 7 -53 14 -64 16 -12 1 -27 6 -33 10 -7 5 -13 6 -13 3
0 -3 -20 3 -45 14 -43 19 -45 19 -55 1z"/>
<path d="M5937 7884 c-1 -2 -32 -5 -68 -8 -36 -3 -77 -9 -91 -15 -14 -5 -28
-7 -31 -4 -3 3 -12 1 -19 -3 -7 -5 -22 -10 -32 -11 -58 -9 -156 -92 -156 -133
0 -5 -3 -10 -8 -10 -9 0 -61 -117 -68 -153 -2 -15 -8 -37 -13 -49 -5 -13 -9
-26 -9 -31 0 -4 -3 -20 -6 -35 -4 -15 -9 -38 -12 -52 -22 -108 -22 -411 1
-515 6 -25 15 -71 21 -110 5 -32 43 -154 53 -170 3 -5 6 -14 6 -20 1 -5 11
-32 23 -58 12 -27 22 -53 22 -58 0 -5 4 -9 8 -9 5 0 14 -11 20 -25 14 -30 35
-31 96 -5 25 10 46 18 46 15 0 -2 15 1 33 6 76 22 342 33 382 15 11 -5 31 -11
45 -13 84 -13 212 -78 272 -139 24 -24 50 -44 58 -44 21 0 108 93 157 166 44
65 96 150 124 201 17 32 37 61 43 65 6 4 8 8 4 8 -4 0 4 23 18 51 14 27 40 92
58 142 34 97 33 137 -3 137 -9 0 -26 7 -37 15 -12 8 -24 12 -26 9 -3 -2 -11 2
-18 11 -7 8 -16 15 -21 15 -9 0 -43 26 -60 45 -77 86 -103 148 -103 255 -1 79
2 92 34 156 40 78 106 148 161 171 21 8 40 22 43 30 8 19 7 21 -24 26 -14 3
-52 15 -85 28 -33 13 -64 24 -70 25 -5 1 -21 5 -35 8 -73 17 -135 31 -190 42
-14 3 -47 7 -75 9 -27 2 -63 7 -80 10 -27 7 -382 14 -388 9z"/>
<path d="M5462 7780 c-86 -29 -161 -129 -154 -205 1 -11 2 -36 3 -55 1 -36 25
-116 42 -137 14 -19 37 -15 37 6 0 11 6 22 13 24 9 4 9 6 0 6 -7 1 -10 8 -7
16 4 8 11 12 16 9 6 -4 6 1 -1 13 -7 15 -6 25 5 41 8 12 12 22 8 22 -4 0 0 8
9 18 10 10 14 21 11 25 -7 6 17 66 62 161 24 51 30 77 17 75 -5 0 -32 -9 -61
-19z"/>
<path d="M5268 7695 c-3 -3 -23 -8 -44 -10 -22 -2 -39 -4 -39 -5 0 -2 -17 -6
-57 -13 -15 -3 -32 -8 -37 -11 -11 -7 -6 -121 14 -302 l8 -71 101 25 c119 28
138 40 109 71 -45 48 -67 181 -43 261 5 19 10 41 10 47 0 13 -12 17 -22 8z"/>
<path d="M6970 7690 c-70 -10 -117 -35 -174 -93 -68 -71 -93 -136 -85 -227 3
-36 13 -81 22 -99 9 -19 17 -40 17 -47 0 -7 26 -40 58 -72 62 -65 111 -87 187
-82 22 1 48 3 58 3 9 1 17 4 17 7 0 3 13 11 28 18 16 7 51 34 79 60 68 63 89
124 78 225 -4 40 -7 80 -8 90 -1 9 -4 17 -8 17 -4 0 -10 12 -14 28 -24 99
-153 186 -255 172z"/>
<path d="M4719 7575 c-1 0 -3 -36 -4 -80 -2 -44 -8 -100 -15 -125 -6 -25 -12
-49 -13 -55 -6 -25 -30 -75 -37 -75 -18 0 -4 -30 14 -31 12 -1 37 -2 56 -4 19
-1 45 1 56 6 21 7 21 12 18 156 -3 81 -6 159 -8 173 -3 14 -5 28 -5 32 -1 4
-14 6 -31 5 -16 -1 -30 -2 -31 -2z"/>
<path d="M4660 7451 c0 -6 -14 -33 -30 -60 -24 -39 -37 -50 -63 -54 -40 -6
-116 16 -146 42 -24 21 -51 18 -51 -5 0 -32 30 -83 65 -110 40 -30 114 -41
161 -24 23 9 62 72 70 113 12 66 14 96 4 102 -5 3 -10 1 -10 -4z"/>
<path d="M7299 7238 c0 -2 -2 -10 -4 -19 -12 -63 -73 -138 -139 -170 -42 -21
-45 -22 -110 -38 -21 -5 -42 -13 -47 -18 -9 -9 354 -383 410 -422 25 -18 39
-21 93 -16 35 3 89 8 121 10 109 9 164 22 171 41 4 10 -26 57 -81 127 -110
141 -243 308 -260 325 -7 8 -43 51 -79 98 -59 75 -72 90 -75 82z"/>
<path d="M7263 6488 c-33 -35 -124 -124 -202 -198 -187 -177 -277 -270 -351
-360 -14 -17 -31 -37 -38 -45 -10 -11 4 -29 78 -103 49 -50 96 -92 103 -95 8
-3 28 8 45 24 17 16 35 29 41 29 5 0 11 3 13 8 2 4 30 30 63 57 33 28 62 52
65 55 3 3 34 30 70 60 36 30 67 57 70 60 3 3 41 37 85 75 44 37 87 75 96 84
10 9 36 32 59 51 24 19 52 43 63 53 11 9 23 17 27 17 5 0 10 7 13 15 7 16 -38
75 -142 185 -39 41 -71 78 -71 83 0 21 -33 0 -87 -55z"/>
<path d="M7686 6543 c-2 -2 -80 -11 -161 -18 -85 -7 -81 -28 22 -136 l75 -78
34 16 c19 9 34 21 34 25 0 5 4 7 9 4 9 -6 60 52 78 89 11 23 8 74 -5 87 -9 9
-79 17 -86 11z"/>
<path d="M5751 6400 c-82 -23 -111 -39 -111 -62 0 -10 -4 -18 -9 -18 -11 0 -5
-201 6 -209 5 -3 8 -13 8 -21 -1 -38 14 -40 312 -36 158 3 324 7 368 11 44 4
102 8 129 9 57 3 65 15 60 84 -2 37 -9 49 -56 93 -52 49 -174 119 -208 119 -9
0 -20 3 -24 7 -3 4 -13 8 -20 9 -8 1 -38 7 -68 14 -29 6 -114 13 -188 15 -107
3 -148 0 -199 -15z"/>
<path d="M5682 6017 c-22 -4 -44 -13 -50 -20 -14 -18 -78 -256 -87 -322 -1
-11 -4 -20 -5 -20 -1 0 -3 -13 -5 -30 -2 -28 -7 -58 -19 -125 -20 -111 -30
-492 -14 -544 7 -21 18 -33 32 -35 37 -5 565 -3 721 3 313 12 390 21 405 46 4
6 0 43 -7 83 -8 40 -16 92 -18 117 -3 25 -9 65 -14 90 -5 25 -12 64 -14 85 -3
22 -8 51 -11 65 -9 42 -16 92 -21 155 -3 33 -8 76 -11 95 -4 19 -8 46 -10 60
-2 14 -5 39 -8 55 -2 17 -7 59 -11 95 -11 101 -13 118 -19 137 -5 17 -31 18
-400 18 -217 0 -412 -4 -434 -8z"/>
<path d="M6600 5805 c-19 -39 -20 -48 -8 -72 7 -15 15 -26 18 -24 3 3 16 -2
30 -9 14 -8 32 -15 40 -17 8 -1 41 -8 73 -14 41 -9 61 -9 68 -2 8 8 4 15 -12
23 -13 7 -53 42 -89 79 -86 89 -94 91 -120 36z"/>
<path d="M6614 5652 c-6 -4 -10 -16 -8 -27 2 -11 6 -47 8 -80 9 -102 44 -203
83 -241 93 -90 184 -143 338 -199 39 -15 145 -17 161 -4 44 37 42 42 -76 179
-22 25 -49 56 -60 70 -12 14 -31 36 -43 50 -12 14 -47 54 -77 90 -78 91 -130
140 -151 140 -10 0 -44 7 -76 15 -64 17 -83 18 -99 7z"/>
<path d="M5583 4898 c-18 -5 -34 -13 -34 -18 -1 -6 -2 -16 -3 -22 -6 -37 68
-114 129 -135 57 -19 148 -4 206 34 40 26 59 55 63 96 4 33 -10 38 -100 36
-60 -2 -210 9 -224 16 -3 1 -20 -2 -37 -7z"/>
<path d="M6292 4889 c-9 -3 -25 -5 -34 -4 -9 2 -22 -3 -29 -11 -29 -36 106
-141 186 -145 75 -3 92 1 146 37 60 39 87 82 70 111 -9 16 -26 18 -165 18 -86
0 -164 -3 -174 -6z"/>
<path d="M5535 4727 c-19 -21 -20 -39 -22 -248 -3 -324 -3 -692 0 -709 7 -35
19 -60 30 -61 7 -1 40 -2 73 -4 34 -1 66 -5 72 -9 6 -3 13 -2 17 3 3 6 16 7
28 3 22 -8 184 -8 191 -1 7 7 17 111 22 229 5 143 14 455 14 495 -2 148 -2
186 1 227 2 35 -3 53 -16 68 -23 25 -25 25 -69 -5 -20 -13 -36 -22 -36 -18 0
3 -7 0 -14 -7 -19 -15 -66 -23 -122 -21 -28 1 -124 54 -132 73 -6 13 -16 9
-37 -15z"/>
<path d="M6594 4729 c-57 -56 -161 -68 -267 -31 -50 18 -59 19 -71 6 -8 -8
-13 -22 -11 -32 1 -9 11 -53 20 -97 17 -79 19 -92 29 -150 7 -38 7 -40 51
-210 20 -77 38 -151 41 -165 6 -30 43 -159 51 -180 4 -8 7 -18 8 -22 2 -5 3
-9 4 -10 2 -2 5 -14 7 -27 2 -14 13 -39 22 -55 17 -29 21 -31 78 -30 51 1 129
9 144 14 3 1 10 3 15 4 88 14 157 32 166 42 11 13 14 64 6 104 -3 14 -8 39
-12 55 -3 17 -21 84 -39 150 -19 66 -44 156 -55 200 -18 66 -75 252 -97 315
-3 8 -5 16 -6 17 -5 36 -39 119 -49 121 -8 1 -24 -7 -35 -19z"/>
<path d="M6807 3733 c-3 -2 -15 -6 -28 -8 -42 -8 -133 -24 -174 -30 -70 -10
-75 -13 -75 -51 l0 -35 43 5 c53 6 175 24 202 30 11 2 39 7 63 11 42 7 43 8
36 38 -3 18 -8 33 -9 35 -5 5 -54 10 -58 5z"/>
<path d="M5564 3656 c-5 -14 0 -59 8 -71 4 -6 74 -10 164 -10 l159 0 6 37 c7
43 4 45 -81 48 -224 7 -252 7 -256 -4z"/>
<path d="M6785 3618 c-44 -11 -89 -21 -100 -24 -67 -13 -85 -19 -135 -41 -30
-13 -57 -29 -61 -35 -4 -5 0 -33 7 -62 8 -28 16 -62 19 -76 3 -14 14 -59 25
-100 12 -41 22 -82 24 -90 2 -8 21 -71 41 -140 68 -231 78 -269 88 -315 2 -5
6 -16 11 -23 4 -7 6 -16 3 -19 -3 -2 1 -22 8 -43 7 -21 16 -51 19 -67 2 -15
11 -53 19 -83 9 -30 18 -68 21 -85 3 -16 10 -50 16 -75 11 -48 17 -77 24 -125
2 -16 7 -37 10 -45 6 -17 15 -61 22 -105 9 -67 68 -288 80 -299 9 -10 79 -15
79 -5 0 1 16 3 35 4 19 2 35 4 35 5 0 1 14 4 30 6 73 9 103 13 150 20 28 4 64
7 82 8 18 1 36 6 42 11 6 6 -2 46 -20 110 -16 55 -30 110 -31 123 -1 12 -5 22
-9 22 -3 0 -6 6 -7 13 0 6 -4 26 -7 42 -4 17 -8 35 -9 40 -1 6 -5 16 -9 23 -5
7 -3 12 5 12 10 0 10 2 -1 9 -7 5 -17 31 -22 57 -9 51 -15 85 -24 119 -3 11
-13 58 -24 105 -10 47 -24 100 -29 118 -6 18 -11 34 -12 37 0 3 -2 10 -4 17
-2 7 -9 33 -16 58 -7 25 -17 61 -23 80 -6 19 -10 37 -10 40 1 3 -14 64 -33
135 -19 72 -36 139 -39 150 -3 11 -25 89 -50 175 -40 140 -75 278 -76 305 0
12 -22 25 -47 29 -9 2 -53 -5 -97 -16z"/>
<path d="M5826 3533 c-1 -1 -53 -5 -116 -9 -63 -3 -124 -7 -135 -8 -45 -4 -47
-12 -43 -142 2 -68 7 -127 11 -130 3 -4 2 -15 -4 -25 -6 -13 -6 -19 0 -19 7 0
7 -9 1 -25 -5 -14 -6 -25 -2 -25 4 0 7 -15 7 -34 -1 -19 1 -58 5 -85 3 -28 2
-51 -2 -51 -5 0 -6 -5 -2 -12 4 -7 8 -42 9 -80 0 -37 4 -70 7 -74 4 -4 3 -15
-3 -25 -7 -14 -6 -19 3 -19 9 0 9 -3 -2 -10 -8 -5 -10 -10 -5 -10 6 0 10 -60
10 -160 0 -88 2 -160 5 -160 5 0 6 -14 12 -162 2 -43 7 -78 13 -78 6 0 3 -5
-5 -10 -8 -5 -10 -10 -5 -10 6 0 10 -25 9 -57 -1 -32 3 -66 8 -75 6 -13 5 -18
-4 -18 -9 0 -9 -3 -2 -8 6 -4 10 -18 10 -32 0 -49 13 -85 35 -99 17 -10 66
-13 202 -13 98 1 187 4 197 7 13 4 17 14 14 38 -2 18 -6 88 -8 157 -9 207 -17
327 -30 455 -3 28 -8 84 -12 125 -7 86 -9 113 -18 189 -4 30 -9 86 -12 125 -3
39 -7 87 -9 106 -3 19 -6 67 -9 105 -2 39 -8 108 -12 155 -4 47 -8 112 -8 145
l-1 60 -53 0 c-29 0 -54 -1 -56 -2z"/>
<path d="M5650 1841 c-17 -11 -8 -24 20 -28 32 -5 107 -43 126 -64 9 -10 23
-19 30 -19 7 0 14 -4 16 -8 2 -5 32 -29 67 -55 71 -51 83 -51 122 4 30 43 30
122 0 152 -17 17 -32 21 -78 20 -32 0 -94 -2 -138 -3 -44 -1 -96 1 -115 4 -19
3 -42 2 -50 -3z"/>
<path d="M5605 1783 c-11 -3 -71 -22 -132 -43 -62 -21 -113 -36 -113 -34 0 3
-13 -2 -30 -11 -16 -9 -30 -13 -30 -10 0 14 -99 -52 -137 -91 -32 -33 -41 -50
-39 -73 1 -17 5 -33 9 -37 7 -8 130 -8 242 0 102 7 389 17 524 19 87 2 106 5
115 20 11 18 11 18 -69 85 -47 39 -134 102 -189 137 -57 36 -109 49 -151 38z"/>
<path d="M7208 1745 c-4 -4 -72 -15 -128 -21 -114 -12 -137 -19 -143 -47 -7
-26 2 -98 12 -110 4 -4 41 15 82 42 41 27 106 62 145 79 66 30 87 52 52 58 -9
1 -18 1 -20 -1z"/>
<path d="M7295 1699 c-48 -8 -125 -40 -125 -51 0 -5 -5 -8 -11 -8 -13 0 -88
-60 -188 -149 l-35 -31 30 -1 c16 0 56 -3 89 -6 33 -2 133 -5 222 -6 90 -1
163 -6 163 -10 0 -5 5 -5 12 -1 6 4 56 8 110 9 112 3 130 12 102 48 -41 51
-162 149 -220 178 -69 34 -91 38 -149 28z"/>
</g>
</svg>
