<?xml version="1.0" standalone="no"?>
<!DOCTYPE svg PUBLIC "-//W3C//DTD SVG 20010904//EN"
 "http://www.w3.org/TR/2001/REC-SVG-20010904/DTD/svg10.dtd">
<svg version="1.0" xmlns="http://www.w3.org/2000/svg"
 width="700.000000pt" height="700.000000pt" viewBox="0 0 700.000000 700.000000"
 preserveAspectRatio="xMidYMid meet">
<metadata>
Created by potrace 1.11, written by Peter Selinger 2001-2013
</metadata>
<g transform="translate(0.000000,700.000000) scale(0.100000,-0.100000)"
fill="#000000" stroke="none">
<path d="M5350 6993 c-8 -3 -74 -50 -146 -105 -72 -54 -135 -98 -141 -98 -6 0
-79 23 -161 50 -83 28 -163 50 -179 50 -53 0 -104 -57 -98 -110 2 -14 26 -92
54 -172 28 -81 51 -151 51 -156 0 -5 -45 -70 -99 -143 -55 -74 -103 -146 -106
-160 -3 -15 1 -43 9 -63 24 -58 52 -65 247 -60 l166 4 34 -45 c19 -24 66 -89
104 -144 68 -97 84 -110 135 -116 29 -3 85 28 95 53 4 9 28 87 54 172 l47 154
164 52 c174 56 205 75 213 130 9 57 -16 86 -164 188 l-139 97 0 176 c0 216 -9
239 -95 249 -16 1 -37 0 -45 -3z"/>
<path d="M3569 6485 c-176 -44 -322 -206 -347 -385 -3 -25 -6 -244 -6 -487 -1
-244 -3 -443 -6 -443 -3 0 -19 9 -37 20 -91 55 -252 69 -362 31 -72 -25 -152
-74 -194 -118 l-28 -31 -32 33 c-103 105 -259 156 -407 133 -47 -7 -128 -35
-153 -53 -12 -8 -24 -15 -28 -15 -3 0 -6 46 -6 103 0 222 -36 325 -151 435
-217 206 -575 153 -725 -109 -60 -106 -61 -117 -62 -561 0 -396 1 -407 21
-435 11 -15 35 -32 52 -38 l32 -9 0 -117 0 -117 -36 -12 c-71 -24 -70 -15 -69
-517 0 -246 3 -453 7 -459 5 -7 -40 -36 -116 -78 -68 -38 -154 -88 -191 -112
-37 -24 -69 -44 -72 -44 -3 0 -42 -26 -86 -57 -232 -162 -355 -291 -389 -408
-49 -166 71 -283 317 -310 58 -7 235 -7 305 -1 19 2 73 6 120 10 47 4 88 10
92 12 8 5 15 -18 23 -81 3 -27 11 -68 17 -90 5 -22 12 -47 13 -56 6 -32 74
-168 111 -224 76 -116 180 -211 304 -281 l55 -31 0 -754 c1 -735 1 -755 20
-781 11 -15 33 -32 49 -38 19 -7 328 -10 923 -10 988 0 947 -3 974 62 9 22 12
109 12 327 -1 163 -2 310 -2 328 -1 36 -51 93 -82 93 -18 0 -19 8 -19 105 0
92 2 106 18 111 31 10 46 20 66 47 18 24 19 44 20 238 1 177 3 213 16 220 8 4
53 20 99 34 362 113 580 369 660 777 32 168 33 185 37 628 2 234 3 434 4 445
0 14 17 29 58 50 93 49 315 177 341 197 32 24 42 23 99 -11 93 -55 196 -83
313 -86 183 -5 307 35 432 138 87 72 197 187 288 302 149 187 368 519 383 578
9 38 -17 83 -62 105 -104 53 -576 190 -757 221 -33 5 -76 13 -95 16 -78 14
-280 13 -342 -1 -186 -44 -348 -176 -442 -361 -14 -29 -26 -58 -26 -66 0 -27
-26 -47 -65 -52 -78 -10 -181 -24 -225 -33 -25 -4 -52 -8 -60 -7 -13 0 -15 99
-16 830 -1 457 -4 848 -8 870 -16 100 -68 198 -139 267 -37 35 -119 84 -172
102 -69 24 -196 29 -266 11z"/>
<path d="M5929 3291 c-14 -11 -71 -115 -134 -244 l-110 -225 -55 -7 c-30 -4
-65 -9 -77 -10 -13 -2 -40 -6 -60 -9 -21 -3 -56 -9 -78 -12 -63 -8 -98 -14
-125 -19 -14 -3 -41 -7 -62 -9 -72 -8 -108 -45 -108 -111 0 -39 5 -45 186
-223 l186 -182 -6 -49 c-3 -27 -8 -55 -10 -63 -3 -7 -7 -31 -10 -53 -3 -22
-10 -65 -15 -95 -6 -30 -13 -68 -15 -85 -3 -16 -9 -48 -13 -70 -14 -81 -9
-123 18 -150 14 -14 41 -28 61 -31 36 -6 90 19 425 198 l62 33 93 -47 c51 -26
153 -79 227 -118 140 -73 164 -79 209 -56 52 27 63 84 38 206 -3 14 -19 104
-36 200 l-31 175 185 181 c199 196 211 215 182 276 -19 39 -44 56 -88 62 -18
3 -46 7 -63 10 -16 2 -55 8 -85 12 -30 4 -57 8 -60 9 -3 1 -34 5 -70 10 -36 5
-67 9 -70 10 -3 1 -31 4 -63 9 l-57 7 -110 224 c-70 143 -119 230 -136 244
-34 27 -93 28 -125 2z"/>
</g>
</svg>
