<svg xmlns="http://www.w3.org/2000/svg" xmlns:xlink="http://www.w3.org/1999/xlink" viewBox="0 0 16 16" version="1.1">
  <g id="surface1">
    <path fill="#fff" style=" " d="M 7.5 2 C 6.675781 2 6 2.675781 6 3.5 C 6 4.324219 6.675781 5 7.5 5 C 8.105469 5 8.589844 4.679688 8.964844 4.402344 C 9.339844 4.125 9.609375 3.847656 9.609375 3.847656 L 9.945313 3.5 L 9.609375 3.148438 C 9.609375 3.148438 9.339844 2.875 8.960938 2.597656 C 8.582031 2.320313 8.101563 2 7.5 2 Z M 7.5 5 L 6.746094 5 L 6.59375 5.203125 C 5.945313 6.097656 5.582031 7.382813 5.339844 8.46875 C 5.097656 9.558594 5 10.445313 5 10.445313 L 4.945313 11 L 6 11 L 6 14 L 7 14 L 7 11 L 8 11 L 8 14 L 9 14 L 9 11 L 10.070313 11 L 9.996094 10.433594 C 9.996094 10.433594 9.878906 9.546875 9.625 8.464844 C 9.375 7.382813 9.011719 6.105469 8.414063 5.21875 L 8.265625 5 Z M 7.5 3 C 7.671875 3 8.066406 3.179688 8.367188 3.402344 C 8.4375 3.453125 8.425781 3.453125 8.484375 3.5 C 8.429688 3.546875 8.4375 3.550781 8.375 3.597656 C 8.070313 3.820313 7.679688 4 7.5 4 C 7.21875 4 7 3.78125 7 3.5 C 7 3.21875 7.21875 3 7.5 3 Z M 7.328125 6 L 7.664063 6 C 8.066406 6.679688 8.433594 7.738281 8.65625 8.691406 C 8.820313 9.410156 8.851563 9.6875 8.898438 10 L 6.09375 10 C 6.132813 9.691406 6.15625 9.410156 6.316406 8.6875 C 6.527344 7.730469 6.898438 6.671875 7.328125 6 Z "></path>
  </g>
</svg>
