<?xml version="1.0" standalone="no"?>
<!DOCTYPE svg PUBLIC "-//W3C//DTD SVG 20010904//EN"
 "http://www.w3.org/TR/2001/REC-SVG-20010904/DTD/svg10.dtd">
<svg version="1.0" xmlns="http://www.w3.org/2000/svg"
 width="325.000000pt" height="325.000000pt" viewBox="0 0 325.000000 325.000000"
 preserveAspectRatio="xMidYMid meet">
<metadata>
Created by potrace 1.11, written by Peter Selinger 2001-2013
</metadata>
<g transform="translate(0.000000,325.000000) scale(0.100000,-0.100000)"
fill="#000000" stroke="none">
<path d="M920 2771 c-16 -14 -19 -21 -10 -20 31 3 40 -2 57 -28 15 -22 18 -50
19 -154 1 -114 3 -130 25 -169 42 -75 158 -113 218 -71 40 29 81 112 74 154
-7 50 -71 157 -125 209 -85 83 -209 121 -258 79z m153 -24 c47 -25 63 -43 62
-69 0 -33 -6 -35 -30 -8 -23 26 -30 18 -27 -28 l3 -37 -25 30 c-14 17 -25 34
-26 38 0 5 -5 5 -10 2 -6 -4 -8 -10 -6 -14 3 -4 1 -13 -5 -21 -6 -11 -9 -5 -9
20 0 19 -9 49 -20 67 -17 29 -18 32 -2 36 22 6 67 -2 95 -16z m-25 -213 c-12
-12 -14 -10 -12 13 2 39 3 40 15 19 9 -14 8 -22 -3 -32z"/>
<path d="M1563 2422 c-12 -2 -36 -18 -53 -35 -31 -31 -32 -34 -26 -103 10
-136 68 -240 139 -251 34 -5 41 -2 73 33 l37 38 -6 92 c-7 106 -21 146 -66
191 -33 32 -59 41 -98 35z"/>
<path d="M1225 2310 c-3 -5 -17 -10 -31 -10 -15 0 -24 -6 -24 -16 0 -15 5 -15
78 -4 1 0 2 6 2 14 0 19 -17 29 -25 16z"/>
<path d="M1191 2218 c4 -24 8 -46 9 -49 0 -3 13 -6 30 -6 32 0 31 -4 15 72 -4
20 -12 25 -34 25 -28 0 -28 -1 -20 -42z"/>
<path d="M1180 2131 c-12 -23 -1 -58 27 -83 30 -27 93 -50 121 -43 21 5 23 10
18 36 -3 16 -15 42 -27 59 -36 48 -119 67 -139 31z"/>
<path d="M1130 2024 c-42 -90 -48 -129 -25 -154 17 -19 74 -28 76 -12 0 4 2
18 4 32 2 14 6 46 9 72 3 25 6 50 8 55 1 4 -7 23 -19 42 l-21 33 -32 -68z"/>
<path d="M1562 2018 c3 -20 10 -23 56 -26 41 -3 52 0 52 11 0 11 -11 15 -36
15 -20 0 -41 5 -47 11 -18 18 -29 13 -25 -11z"/>
<path d="M1225 1962 c3 -31 8 -73 10 -92 3 -19 7 -66 11 -105 3 -38 23 -196
45 -350 46 -321 47 -325 54 -385 3 -25 7 -58 9 -75 2 -16 7 -52 11 -80 3 -27
8 -61 10 -75 3 -14 7 -47 11 -75 3 -27 7 -61 10 -75 2 -14 9 -63 14 -110 6
-47 13 -96 15 -110 2 -14 6 -47 10 -75 7 -62 15 -109 19 -112 1 -1 12 5 25 13
23 17 24 21 6 144 -2 14 -7 52 -10 85 -3 33 -8 71 -10 85 -8 56 -15 108 -20
160 -4 30 -8 62 -10 70 -2 8 -7 49 -10 90 -3 41 -8 82 -10 90 -2 8 -7 44 -10
80 -3 36 -8 76 -10 90 -2 14 -6 48 -9 75 -3 28 -8 70 -11 95 -8 64 -23 201
-30 275 -2 22 -16 120 -32 217 l-27 176 -34 16 -33 16 6 -58z"/>
<path d="M1499 1979 c-26 -10 -48 -54 -75 -149 -11 -38 -5 -126 12 -196 l16
-62 36 15 c47 20 146 10 207 -21 l45 -23 23 31 c13 17 39 60 58 96 18 36 34
67 36 68 1 2 25 -19 53 -47 28 -28 62 -54 74 -57 24 -6 102 11 110 24 4 7
-128 174 -143 179 -3 2 -14 -11 -23 -27 -16 -29 -52 -50 -83 -50 -22 0 -74 52
-76 75 -3 44 2 63 26 89 l25 27 -37 16 c-21 8 -54 15 -73 15 -19 0 -62 -1 -95
-1 -32 -1 -66 1 -75 3 -8 2 -27 0 -41 -5z"/>
<path d="M1418 1953 c-19 -5 -21 -22 -8 -63 l7 -25 10 25 c19 46 24 70 16 69
-4 -1 -16 -3 -25 -6z"/>
<path d="M1332 1927 c-21 -9 -22 -15 -16 -51 4 -23 7 -47 7 -54 0 -13 64 -7
80 8 13 12 -16 103 -33 105 -8 1 -25 -2 -38 -8z"/>
<path d="M1801 1914 c-38 -49 -23 -112 32 -133 76 -29 135 88 71 138 -37 29
-78 27 -103 -5z"/>
<path d="M1211 1847 c2 -27 7 -51 12 -54 11 -6 4 83 -7 94 -4 4 -6 -14 -5 -40z"/>
<path d="M1175 1840 c-4 -6 -13 -9 -20 -8 -23 5 -19 -16 6 -29 29 -15 39 -9
39 23 0 25 -14 32 -25 14z"/>
<path d="M1914 1608 c-92 -106 -134 -160 -134 -171 0 -6 14 -20 30 -29 l30
-17 72 62 c107 91 125 110 109 115 -7 2 -26 17 -42 33 -36 35 -40 35 -65 7z"/>
<path d="M2018 1623 c-16 -2 -28 -8 -28 -12 0 -23 88 -45 91 -23 0 4 2 15 4
25 3 18 -7 19 -67 10z"/>
<path d="M1498 1578 c-23 -8 -26 -13 -18 -31 5 -12 11 -35 15 -50 l6 -28 109
2 110 2 0 32 c0 23 -7 35 -27 47 -46 27 -151 41 -195 26z"/>
<path d="M1485 1443 c-8 -8 -15 -17 -16 -21 -4 -26 -8 -68 -13 -141 -3 -46 -8
-86 -10 -89 -7 -7 23 -62 34 -63 6 -1 16 -2 23 -3 16 -3 57 15 57 24 0 4 -21
7 -46 6 -25 -1 -48 2 -50 6 -3 5 55 8 128 7 180 -2 188 -1 183 14 -2 6 -6 23
-9 37 -5 28 -36 187 -41 210 -2 8 -4 19 -4 23 -1 4 -51 7 -111 6 -82 -1 -115
-5 -125 -16z"/>
<path d="M1755 1404 c-17 -13 -14 -19 8 -15 4 1 16 -3 27 -9 28 -15 34 5 7 23
-20 13 -26 13 -42 1z"/>
<path d="M1756 1371 c-7 -11 4 -72 17 -101 13 -27 66 -57 107 -60 66 -6 75 5
38 44 -13 12 -39 41 -59 63 -35 39 -94 70 -103 54z"/>
<path d="M1650 1150 c-14 -9 3 -28 30 -34 26 -6 71 11 77 29 3 11 -91 15 -107
5z"/>
<path d="M1456 1077 c4 -58 12 -213 13 -239 1 -15 10 -18 51 -18 l51 0 -5 63
c-2 34 -5 102 -5 150 l-1 88 -34 -6 c-19 -4 -43 -2 -53 4 -19 9 -20 7 -17 -42z"/>
<path d="M1740 1110 c-8 -5 -30 -10 -48 -10 -18 0 -31 -4 -28 -8 3 -5 7 -19
10 -33 3 -13 17 -70 33 -127 21 -80 30 -101 42 -98 9 2 33 7 55 11 37 6 38 8
32 38 -11 54 -69 237 -75 237 -3 0 -13 -5 -21 -10z"/>
<path d="M1792 830 c-40 -9 -46 -15 -38 -35 4 -12 14 -15 43 -10 58 10 62 12
56 34 -6 22 -10 23 -61 11z"/>
<path d="M1476 802 c-10 -17 21 -33 56 -29 49 5 43 31 -9 35 -22 2 -44 -1 -47
-6z"/>
<path d="M1780 771 c-19 -4 -34 -11 -33 -16 1 -10 30 -118 83 -315 48 -178 41
-168 105 -157 35 7 55 15 55 24 0 7 -12 57 -26 111 -14 53 -36 135 -49 182
-12 47 -28 106 -35 133 -14 51 -19 53 -100 38z"/>
<path d="M1485 698 c4 -77 16 -280 20 -328 2 -19 4 -43 4 -52 1 -10 8 -18 16
-18 21 0 19 -18 -2 -22 -13 -2 -7 -9 21 -26 43 -26 66 -23 66 8 0 20 -9 24
-42 21 -10 -1 -18 2 -18 7 0 5 12 9 28 8 24 -1 27 2 26 29 -2 46 -17 287 -19
315 -1 14 -3 46 -4 73 l-1 47 -49 0 -49 0 3 -62z"/>
<path d="M1926 271 c-16 -3 -31 -11 -33 -18 -3 -8 9 -7 43 3 73 22 67 32 -10
15z"/>
<path d="M1458 232 c-26 -15 -48 -33 -48 -40 0 -7 4 -11 8 -8 5 3 37 6 72 7
35 1 74 4 88 7 22 4 21 7 -22 33 -25 16 -47 29 -48 28 -2 0 -24 -12 -50 -27z"/>
<path d="M1929 243 c-16 -4 -49 -53 -49 -72 0 -15 113 -14 165 0 l40 11 -40
34 c-38 32 -70 40 -116 27z"/>
</g>
</svg>
