<?xml version="1.0" encoding="iso-8859-1"?>
<!-- Generator: Adobe Illustrator 19.0.0, SVG Export Plug-In . SVG Version: 6.00 Build 0)  -->
<svg version="1.1" id="Capa_1" xmlns="http://www.w3.org/2000/svg" xmlns:xlink="http://www.w3.org/1999/xlink" x="0px" y="0px"
	 viewBox="0 0 512 512" style="enable-background:new 0 0 512 512;" xml:space="preserve">
<path style="fill:#F94A46;" d="M471.893,83.987c-56.156-60.526-151.062-63.49-212.173-7.972l0,0c-2.109,1.916-5.329,1.916-7.439,0
	L251.164,75C189.773,19.227,94.793,23.781,39.019,85.173C-16.94,146.77-11.975,241.75,49.192,297.318l189.233,171.914
	c9.967,9.055,25.183,9.055,35.15,0c205.32-186.527,194.242-175.692,203.634-186.935C524.862,225.247,524.009,140.159,471.893,83.987
	z"/>
<path style="fill:#E83A3A;" d="M259.426,453.685L70.193,281.771C4.259,221.873,4.437,117.639,71.771,58.035
	c-85.333,52.273-96.637,172.005-22.579,239.283l189.233,171.915c9.967,9.055,25.183,9.055,35.15,0
	c3.683-3.346,7.287-6.62,10.832-9.84C275.903,461.901,266.386,460.009,259.426,453.685z"/>
<path style="fill:#F7CF9C;" d="M444.48,143.803l-65.051,25.188L357.03,191.39l52.926,49.063l20.467-20.467l25.188-65.05
	C458.571,147.293,452.121,140.844,444.48,143.803z"/>
<path style="fill:#EABC8B;" d="M398.169,180.663l55.856-21.628l1.587-4.1c2.699-6.971-4.162-13.831-11.132-11.132l-65.05,25.188
	l-22.4,22.399l13.099,12.142l13.205-13.205C387.553,186.108,392.605,182.817,398.169,180.663z"/>
<path style="fill:#666666;" d="M411.881,156.425l32.599-12.622c7.642-2.959,14.091,3.49,11.132,11.132l-12.622,32.599
	C429.681,181.74,417.768,169.947,411.881,156.425z"/>
<path style="fill:#5A5B5B;" d="M450.729,143.451c-0.63-0.191-1.292-0.318-1.988-0.358c-0.049-0.003-0.094-0.014-0.143-0.016
	c-1.295-0.053-2.686,0.172-4.118,0.726l-32.599,12.623c2.364,5.429,5.711,10.57,9.718,15.165l32.425-12.555l1.588-4.1
	c0.058-0.151,0.09-0.297,0.141-0.447c0.43-1.259,0.626-2.484,0.584-3.63c0-0.014,0.002-0.028,0.001-0.042
	C456.193,147.249,453.94,144.427,450.729,143.451z"/>
<path style="fill:#F7A808;" d="M61.88,149.724c-4.464,0.669-6.225,6.198-2.962,9.318c29.285,28.001-6.949,65.542,28.601,101.092
	c23.312,23.312,54.253,15.892,54.253,15.892l44.618-44.618C169.899,142.57,92.061,145.199,61.88,149.724z"/>
<path style="fill:#EA990A;" d="M67.018,169.818c13.335,26.457-10.664,59.152,20.501,90.317
	c23.312,23.312,54.253,15.892,54.253,15.892l7.903-7.903c0,0-21.303-2.219-44.615-25.531
	C73.895,211.428,83.65,192.977,67.018,169.818z"/>
<g>
	<path style="fill:#FFB70D;" d="M161.799,256l24.591-24.591c-16.491-88.839-94.329-86.21-124.51-81.684
		C61.88,149.724,137.137,159.238,161.799,256z"/>
	<path style="fill:#FFB70D;" d="M430.424,219.986c-12.59,12.59-33.936,1.139-30.422-16.322c0.508-2.523-1.728-4.758-4.251-4.25
		c-17.459,3.512-28.911-17.833-16.322-30.422L257.225,291.195l0,0L154.988,393.432l53.44,48.549l88.178-88.178l0,0L430.424,219.986z
		"/>
</g>
<g>
	<path style="fill:#F7A808;" d="M173.132,375.289l-18.143,18.143c3.113,2.828,50.142,45.553,53.44,48.549l18.143-18.143
		L173.132,375.289z"/>
	<path style="fill:#F7A808;" d="M399.013,200.402c-1.579-1.579-3.108-0.938-5.12-0.721c-16.419,1.559-26.616-18.536-14.464-30.689
		c-12.146,12.146-102.343,102.343-113.832,113.832l0,0L154.988,393.432l26.72,24.275l90.663-90.663l0,0L399.013,200.402z"/>
</g>
<path style="fill:#EA990A;" d="M379.429,168.992c-12.146,12.146-102.343,102.343-113.832,113.832l0,0l-92.464,92.465l0,0
	l-18.143,18.143l26.72,24.275l18.143-18.143l-5.418-4.922c-4.461-4.053-4.628-11.013-0.366-15.275l82.002-82.002l0,0
	c9.643-9.644,72.632-72.632,103.16-103.16C373.021,187.665,371.697,176.724,379.429,168.992z"/>
<polygon style="fill:#C69C52;" points="343.562,405.651 222.42,271.996 179.445,314.97 311.563,434.721 "/>
<polygon style="fill:#AD8338;" points="196.748,297.668 179.445,314.97 311.563,434.721 329.738,418.209 "/>
<path style="fill:#E6E6E6;" d="M203.42,234.048c-5.432-5.432-14.238-5.432-19.669,0l-42.981,42.981
	c-5.432,5.432-5.432,14.238,0,19.669c5.432,5.432,14.238,5.432,19.669,0l42.981-42.981
	C208.851,248.286,208.851,239.48,203.42,234.048z"/>
<g>
	<path style="fill:#CCCCCC;" d="M223.089,253.718c-5.432-5.432-14.238-5.432-19.669,0l-42.981,42.981
		c-5.432,5.432-5.432,14.238,0,19.669c5.432,5.432,14.238,5.432,19.669,0l42.981-42.981
		C228.521,267.955,228.521,259.149,223.089,253.718z"/>
	<path style="fill:#CCCCCC;" d="M155.031,279.919c-3.455-3.456-4.961-8.122-4.519-12.633l-9.743,9.743
		c-5.432,5.432-5.432,14.238,0,19.669c5.432,5.432,14.238,5.432,19.669,0l16.779-16.779
		C171.09,286.046,161.157,286.046,155.031,279.919z"/>
</g>
<path style="fill:#BAB9B9;" d="M177.218,302.107c-6.127-6.127-6.127-16.061,0-22.187l0,0l-0.001,0.001L160.438,296.7
	c-5.432,5.432-5.432,14.238,0,19.669c5.432,5.432,14.238,5.432,19.669,0l9.743-9.743
	C185.34,307.067,180.674,305.562,177.218,302.107z"/>
<g>
</g>
<g>
</g>
<g>
</g>
<g>
</g>
<g>
</g>
<g>
</g>
<g>
</g>
<g>
</g>
<g>
</g>
<g>
</g>
<g>
</g>
<g>
</g>
<g>
</g>
<g>
</g>
<g>
</g>
</svg>
