<svg height="511pt" viewBox="-11 0 511 511.99643" width="511pt" xmlns="http://www.w3.org/2000/svg"><path d="m426.804688 277.234375 17.421874 35.304687 38.960938 5.664063-28.191406 27.476563 6.652344 38.804687-34.84375-18.320313-34.847657 18.320313 6.65625-38.804687-28.191406-27.476563 38.957031-5.664063zm0 0" fill="#f9cd45"/><path d="m483.1875 318.203125-23.457031-3.0625-28.191407 27.480469 4.90625 28.609375 25.203126 13.253906-6.652344-38.804687zm0 0" fill="#f8b53c"/><path d="m382.511719 7.644531-.21875 27.59375 22.609375 15.824219-26.3125 8.320312-8.058594 26.390626-16.046875-22.453126-27.585937.488282 16.390624-22.195313-8.988281-26.089843 26.175781 8.734374zm0 0" fill="#f9cd45"/><path d="m224.726562 156.617188h-96.539062c-31.445312 0-57.175781 25.726562-57.175781 57.171874v123.722657c0 24.539062 15.667969 45.59375 37.492187 53.660156v113.175781h129.347656v-111.210937c25.171876-5.972657 44.050782-28.695313 44.050782-55.625v-123.722657c0-31.445312-25.726563-57.171874-57.175782-57.171874zm0 0" fill="#f0bca6"/><path d="m214.46875 396.457031-.074219 107.890625h23.457031v-110.664062zm0 0" fill="#f0ac9e"/><path d="m97.726562 287.835938c-14.691406 0-26.710937-12.023438-26.710937-26.714844v-141.75c0-14.695313 12.019531-26.714844 26.710937-26.714844 14.691407 0 26.710938 12.023438 26.710938 26.714844v141.75c0 14.691406-12.019531 26.714844-26.710938 26.714844zm0 0" fill="#f0bca6"/><path d="m258 259.714844c-14.691406 0-26.710938-12.019532-26.710938-26.710938v-162.152344c0-14.691406 12.023438-26.710937 26.710938-26.710937 14.695312 0 26.714844 12.023437 26.714844 26.710937v162.152344c0 14.691406-12.019532 26.710938-26.714844 26.710938zm0 0" fill="#f0bca6"/><path d="m258 44.140625c-4.199219 0-8.179688.988281-11.726562 2.734375 8.851562 4.363281 14.984374 13.488281 14.984374 23.980469v162.148437c0 10.492188-6.132812 19.617188-14.984374 23.980469 3.546874 1.746094 7.527343 2.734375 11.726562 2.734375 14.695312 0 26.714844-12.019531 26.714844-26.714844v-162.152344c0-14.6875-12.019532-26.710937-26.714844-26.710937zm0 0" fill="#f0ac9e"/><path d="m365.1875 201.253906c-6.640625-18.914062-91.957031-6.1875-190.566406 28.421875-98.609375 34.613281-173.164063 78.003907-166.523438 96.914063 6.636719 18.914062 91.957032 6.191406 190.5625-28.421875 98.609375-34.609375 173.164063-78 166.527344-96.914063zm0 0" fill="#16b770"/><path d="m282.628906 264.003906c53.429688-25.277344 87.09375-49.773437 82.539063-62.746094-4.554688-12.976562-46.144531-11.0625-103.648438 2.597657zm0 0" fill="#fff4f1"/><path d="m381.175781 242.117188c-22.851562 8.019531-47.882812-4.003907-55.90625-26.859376-8.019531-22.851562 4.003907-47.882812 26.859375-55.902343 22.851563-8.023438 86.183594 16.226562 86.183594 16.226562s-34.28125 58.511719-57.136719 66.535157zm0 0" fill="#d47a3d"/><path d="m353.980469 158.804688c27.117187 3.855468 60.875 16.78125 60.875 16.78125s-34.28125 58.511718-57.136719 66.53125c-.929688.328124-1.867188.609374-2.800781.871093 8.347656 2.324219 17.460937 2.214844 26.257812-.871093 22.855469-8.019532 57.136719-66.53125 57.136719-66.53125s-60.101562-23.015626-84.332031-16.78125zm0 0" fill="#9f5c2e"/><g fill="#f0bca6"><path d="m151.152344 276.589844c-14.695313 0-26.714844-12.023438-26.714844-26.714844v-87.167969c0-14.691406 12.023438-26.710937 26.714844-26.710937s26.710937 12.019531 26.710937 26.710937v87.167969c0 14.691406-12.019531 26.714844-26.710937 26.714844zm0 0"/><path d="m204.578125 276.589844c-14.695313 0-26.714844-12.023438-26.714844-26.714844v-87.167969c0-14.691406 12.023438-26.710937 26.714844-26.710937s26.710937 12.019531 26.710937 26.710937v87.167969c0 14.691406-12.019531 26.714844-26.710937 26.714844zm0 0"/><path d="m297.367188 315.34375v-62.1875c0-.316406-.011719-.625-.023438-.9375.011719-.3125.023438-.625.023438-.9375 0-14.691406-12.019532-26.710938-26.710938-26.710938h-78.734375c-14.691406 0-26.710937 12.019532-26.710937 26.710938s12.019531 26.710938 26.710937 26.710938h16.628906c-16.734375 10.425781-27.875 28.980468-27.875 50.144531 0 32.613281 26.4375 59.050781 59.046875 59.050781 32.613282 0 55.769532-22.027344 57.644532-71.84375zm0 0"/></g><path d="m297.367188 251.28125c0-14.691406-12.019532-26.710938-26.710938-26.710938h-23.457031c14.691406 0 26.710937 12.019532 26.710937 26.710938 0 .3125-.011718.625-.023437.9375.011719.3125.023437.621094.023437.9375v62.1875c-1.632812 43.421875-19.4375 65.722656-45.574218 70.734375 3.6875.722656 7.492187 1.109375 11.386718 1.109375 32.613282 0 55.769532-22.027344 57.644532-71.84375v-62.1875c0-.316406-.015626-.625-.023438-.9375.011719-.3125.023438-.625.023438-.9375zm0 0" fill="#f0ac9e"/><path d="m490.460938 315.835938c-.898438-2.765626-3.292969-4.785157-6.175782-5.203126l-34.980468-5.082031-15.644532-31.699219c-1.289062-2.613281-3.945312-4.265624-6.859375-4.265624-2.910156 0-5.570312 1.652343-6.859375 4.265624l-15.640625 31.699219-34.980469 5.082031c-2.882812.417969-5.277343 2.4375-6.175781 5.203126-.902343 2.769531-.148437 5.808593 1.933594 7.84375l25.3125 24.671874-5.976563 34.839844c-.492187 2.867188.6875 5.769532 3.042969 7.480469s5.476563 1.9375 8.054688.582031l31.289062-16.449218 31.289063 16.449218c1.117187.589844 2.339844.878906 3.558594.878906 1.585937 0 3.164062-.492187 4.496093-1.460937 2.355469-1.710937 3.535157-4.613281 3.039063-7.480469l-5.972656-34.839844 25.3125-24.671874c2.085937-2.035157 2.835937-5.074219 1.9375-7.84375zm-40.804688 24.367187c-1.804688 1.757813-2.625 4.289063-2.199219 6.773437l4.035157 23.523438-21.128907-11.105469c-2.230469-1.171875-4.890625-1.171875-7.121093 0l-21.125 11.105469 4.03125-23.523438c.429687-2.484374-.394532-5.015624-2.199219-6.773437l-17.09375-16.660156 23.625-3.433594c2.492187-.359375 4.644531-1.925781 5.757812-4.183594l10.5625-21.40625 10.566407 21.40625c1.113281 2.257813 3.265624 3.824219 5.757812 4.183594l23.621094 3.433594zm0 0" fill="#18191b"/><path d="m320.097656 67.316406c1.335938 2.589844 4.039063 4.179688 6.933594 4.144532l23.570312-.417969 13.703126 19.179687c1.453124 2.027344 3.78125 3.203125 6.222656 3.203125.410156 0 .824218-.035156 1.238281-.101562 2.871094-.46875 5.230469-2.53125 6.082031-5.3125l6.886719-22.546875 22.476563-7.109375c2.773437-.875 4.8125-3.253907 5.25-6.132813.441406-2.878906-.785157-5.757812-3.171876-7.425781l-19.3125-13.515625.183594-23.574219c.023438-2.910156-1.609375-5.582031-4.210937-6.890625-2.597657-1.308594-5.714844-1.027344-8.042969.722656l-18.824219 14.191407-22.359375-7.457031c-2.761718-.921876-5.808594-.199219-7.855468 1.871093-2.050782 2.070313-2.746094 5.121094-1.796876 7.875l7.679688 22.289063-14.007812 18.960937c-1.726563 2.335938-1.980469 5.457031-.644532 8.046875zm30.425782-28.195312-3.941407-11.433594 11.472657 3.824219c2.390624.796875 5.015624.367187 7.027343-1.144531l9.660157-7.285157-.097657 12.097657c-.019531 2.519531 1.203125 4.882812 3.265625 6.328124l9.910156 6.933594-11.535156 3.648438c-2.402344.757812-4.273437 2.652344-5.007812 5.058594l-3.535156 11.566406-7.03125-9.839844c-1.4375-2.011719-3.757813-3.203125-6.226563-3.203125-.042969 0-.089844 0-.132813 0l-12.09375.214844 7.1875-9.726563c1.492188-2.027344 1.898438-4.660156 1.078126-7.039062zm0 0" fill="#18191b"/><path d="m1.351562 328.949219c3.199219 9.117187 14.203126 13.585937 34.054688 13.585937 7.910156 0 17.246094-.71875 28.03125-2.128906 1.089844 24.035156 15.660156 45.664062 37.417969 55.851562v108.089844c0 4.222656 3.425781 7.648438 7.648437 7.648438h129.34375c4.226563 0 7.652344-3.425782 7.652344-7.648438v-44.144531c0-4.226563-3.425781-7.648437-7.652344-7.648437-4.222656 0-7.648437 3.421874-7.648437 7.648437v36.496094h-114.046875v-105.527344c0-3.203125-1.992188-6.066406-4.996094-7.175781-19.25-7.113282-32.234375-25.507813-32.480469-45.894532 27.824219-4.761718 61.023438-13.183593 95.898438-24.335937-1.015625 4.65625-1.546875 9.46875-1.546875 14.371094 0 4.226562 3.425781 7.648437 7.648437 7.648437 4.222657 0 7.648438-3.421875 7.648438-7.648437 0-17.863281 9.074219-34.183594 24.269531-43.652344 2.898438-1.804687 4.25-5.3125 3.3125-8.59375-.941406-3.28125-3.941406-5.546875-7.355469-5.546875h-16.628906c-10.511719 0-19.0625-8.550781-19.0625-19.0625s8.550781-19.0625 19.0625-19.0625h75.164063c1.195312-.003906 2.46875-.003906 3.859374.015625 10.375.15625 18.773438 8.632813 18.773438 19.046875 0 .179688-.007812.359375-.015625.539062l-.003906.128907c-.007813.179687-.007813.359375 0 .539062l.003906.132813c.007813.175781.015625.355468.015625.535156v62.042969c-1 26.132812-5.75 43.40625-17.234375 54.117187-11.015625 10.277344-22.773437 13.289063-39.144531 17.652344-8.117188 1.296875-17.222656 1.941406-27.359375 1.941406-4.222657 0-7.648438 3.425782-7.648438 7.648438 0 4.226562 3.425781 7.652344 7.648438 7.652344 8.699219 0 16.761719-.460938 24.21875-1.375v26.722656c0 4.222656 3.425781 7.648437 7.648437 7.648437 4.226563 0 7.652344-3.425781 7.652344-7.648437v-29.445313c16.152344-3.890625 28.722656-10.582031 37.984375-20.164062 13.75-14.222657 20.386719-34.058594 21.527344-64.316407 0-.097656.003906-.191406.003906-.289062v-54.4375c12.273437-6.34375 23.109375-12.535156 32.320313-18.46875 8.519531 5.96875 18.773437 9.296875 29.363281 9.296875 5.589843 0 11.273437-.925781 16.839843-2.878906 24.617188-8.640625 57.289063-63.441407 60.933594-69.664063 1.058594-1.808594 1.269532-3.992187.574219-5.972656-.695313-1.976562-2.222656-3.550781-4.183594-4.300781-6.730469-2.578125-66.484375-24.941407-91.101562-16.300781-16.109375 5.65625-27.589844 18.632812-32.046875 33.890624-7.71875.796876-16.226563 2.019532-25.351563 3.628907v-119.285157c0-18.945312-15.414062-34.359374-34.363281-34.359374-18.945312 0-34.359375 15.414062-34.359375 34.359374v63.285157c-5.460937-3.65625-12.015625-5.789063-19.0625-5.789063-10.78125 0-20.410156 4.992188-26.714844 12.777344-6.304687-7.785156-15.933593-12.777344-26.710937-12.777344-7.046875 0-13.605469 2.132813-19.0625 5.789063v-14.765625c0-18.949219-15.414063-34.363282-34.363282-34.363282-18.945312 0-34.359374 15.414063-34.359374 34.363282v51.6875c0 4.222656 3.425781 7.648437 7.648437 7.648437s7.648437-3.425781 7.648437-7.648437v-51.6875c0-10.511719 8.550782-19.066406 19.0625-19.066406 10.511719 0 19.0625 8.554687 19.0625 19.066406v124.957031c-13.617187 5.761719-26.378906 11.570313-38.109374 17.335937-.003907-.179687-.015626-.359374-.015626-.542968v-57.441406c0-4.222657-3.425781-7.648438-7.648437-7.648438s-7.648437 3.425781-7.648437 7.648438v57.441406c0 2.648437.3125 5.292968.921874 7.863281-12.039062 6.359375-22.714843 12.609375-31.742187 18.628906-25.269531 16.839844-35.183594 29.976563-31.195313 41.335938zm237.921876-112.03125c5.980468-1.632813 11.882812-3.171875 17.648437-4.597657l1.617187 4.597657zm115.21875-50.828125c2.4375-.855469 5.632812-1.234375 9.371093-1.234375 16.625 0 44.050781 7.527343 63.839844 14.453125-13.621094 21.773437-35.625 51.417968-48.890625 56.070312-4.011719 1.410156-8.097656 2.078125-12.128906 2.074219-15.15625 0-29.378906-9.464844-34.675782-24.558594-6.707031-19.101562 3.382813-40.101562 22.484376-46.804687zm-38.824219 35.003906c.035156 5.492188.949219 11.066406 2.867187 16.53125 1.917969 5.464844 4.683594 10.390625 8.089844 14.699219-6.59375 4.125-14.007812 8.390625-22.179688 12.753906-2.75-15.011719-15.28125-26.644531-30.722656-28.015625l-2.824218-8.046875c16.542968-3.710937 31.761718-6.398437 44.769531-7.921875zm-76.730469-130.242188c0-10.511718 8.550781-19.0625 19.0625-19.0625s19.066406 8.550782 19.066406 19.0625v122.226563c-5.574218 1.15625-11.316406 2.433594-17.1875 3.828125-.003906 0-.007812 0-.007812.003906-6.789063 1.609375-13.804688 3.394532-20.933594 5.304688zm-53.425781 91.855469c0-10.511719 8.554687-19.0625 19.066406-19.0625s19.0625 8.550781 19.0625 19.0625v54.210938h-31.71875c-2.191406 0-4.332031.214843-6.410156.609375zm-53.425781 7.496094v-7.496094c0-10.511719 8.554687-19.0625 19.066406-19.0625 10.511718 0 19.0625 8.550781 19.0625 19.0625v61.960938c-7.71875 6.308593-12.652344 15.890625-12.652344 26.613281 0 5.332031 1.226562 10.378906 3.402344 14.886719-2.941406 1.792969-6.304688 2.769531-9.816406 2.769531-10.511719 0-19.0625-8.550781-19.0625-19.0625zm-91.046876 128.910156c8.832032-5.847656 19.546876-12.0625 31.683594-18.402343 2.210938-1.070313 5.402344-2.546876 7.984375-4.082032 11.507813-5.777344 24.078125-11.613281 37.402344-17.34375 4.105469 14.386719 17.359375 24.953125 33.042969 24.953125 7.03125 0 13.742187-2.125 19.429687-6.054687 5.003907 3.980468 11.140625 6.601562 17.84375 7.285156-2.910156 3.480469-5.429687 7.242188-7.558593 11.21875-43.230469 14.378906-84.414063 24.71875-116.308594 29.167969-38.421875 5.363281-49.003906.074219-49.734375-1.636719-.382813-1.382812 2.9375-9.695312 26.214843-25.105469zm0 0" fill="#18191b"/></svg>