<?xml version="1.0" standalone="no"?>
<!DOCTYPE svg PUBLIC "-//W3C//DTD SVG 20010904//EN"
 "http://www.w3.org/TR/2001/REC-SVG-20010904/DTD/svg10.dtd">
<svg version="1.0" xmlns="http://www.w3.org/2000/svg"
 width="700.000000pt" height="700.000000pt" viewBox="0 0 700.000000 700.000000"
 preserveAspectRatio="xMidYMid meet">
<metadata>
Created by potrace 1.11, written by Peter Selinger 2001-2013
</metadata>
<g transform="translate(0.000000,700.000000) scale(0.100000,-0.100000)"
fill="#fff" stroke="none">
<path d="M3217 6124 c-1 -1 -18 -5 -37 -8 -127 -20 -262 -88 -353 -180 -75
-75 -91 -95 -127 -166 -78 -154 -95 -344 -44 -497 76 -228 264 -396 499 -448
l60 -14 -105 1 c-169 0 -164 1 -183 -32 -10 -16 -23 -35 -30 -42 -21 -22 -132
-200 -167 -268 -18 -36 -37 -72 -41 -80 -25 -45 -85 -187 -124 -294 -43 -120
-142 -431 -149 -471 -2 -11 -20 -87 -41 -170 -35 -146 -106 -484 -120 -575 -4
-25 -10 -56 -12 -70 -7 -38 -15 -93 -39 -260 -2 -19 -6 -48 -9 -65 -5 -32 -10
-78 -20 -185 -3 -36 -8 -75 -11 -87 -4 -22 -2 -23 73 -24 43 0 148 -1 233 -2
l155 -2 1 -650 c1 -357 2 -652 3 -655 2 -8 419 -6 427 3 4 4 8 298 8 654 l1
648 218 2 217 2 0 -657 0 -657 218 0 217 0 2 645 c1 355 2 650 2 657 1 8 57
11 209 12 266 0 264 0 258 9 -2 4 -7 35 -11 69 -3 34 -8 72 -10 85 -3 13 -7
48 -10 78 -4 30 -8 62 -10 70 -3 8 -7 33 -10 55 -11 69 -15 98 -30 180 -8 44
-17 96 -20 115 -5 30 -98 466 -109 510 -103 417 -208 748 -306 965 -56 124
-144 295 -152 295 -4 0 -8 6 -8 13 0 6 -26 50 -58 96 l-57 84 -114 -1 c-63 -1
-112 0 -109 3 2 3 40 14 84 25 178 45 409 187 629 385 43 39 81 72 84 75 3 3
42 43 85 88 l80 81 -140 139 c-269 266 -550 449 -766 496 -61 14 -223 28 -231
20z m167 -463 c104 -39 238 -115 298 -170 l27 -24 -22 -20 c-68 -61 -257 -163
-346 -187 -82 -22 -159 -1 -218 60 -83 85 -77 230 14 310 69 61 143 70 247 31z
m-7 -847 c-3 -3 -12 -4 -19 -1 -8 3 -5 6 6 6 11 1 17 -2 13 -5z m-23 -445 c2
-2 14 -22 27 -44 178 -314 367 -887 465 -1410 16 -86 40 -243 39 -265 l0 -25
-607 0 c-563 0 -608 1 -608 17 0 28 23 193 39 288 80 448 222 910 370 1210 50
101 108 208 122 226 8 10 144 13 153 3z"/>
</g>
</svg>
